<?xml version="1.0" encoding="UTF-8" standalone="no"?> <svg xmlns="http://www.w3.org/2000/svg" version="1.0" width="32.000000pt" height="32.000000pt" viewBox="0 0 32.000000 32.000000" preserveAspectRatio="xMidYMid meet"><g transform="translate(0.000000,32.000000) scale(0.100000,-0.100000)" fill="#000000" stroke="none"><path d="M0 160 l0 -160 160 0 160 0 0 160 0 160 -160 0 -160 0 0 -160z m225 110 c5 -8 11 -8 20 0 9 7 16 6 24 -3 6 -8 8 -17 5 -20 -4 -3 -6 -55 -5 -114 1 -64 -2 -103 -7 -95 -5 7 -7 25 -4 39 3 15 -1 29 -9 34 -10 6 -10 9 -1 9 16 0 16 30 0 30 -9 0 -8 3 2 10 18 11 7 25 -15 17 -11 -5 -15 -23 -15 -77 l0 -70 -72 0 -72 0 54 57 c120 126 130 142 27 44 -60 -56 -111 -100 -114 -97 -3 2 -2 24 2 48 6 36 20 56 83 120 77 80 86 86 97 68z"></path><path d="M167 224 c-21 -23 -34 -45 -29 -48 13 -8 88 72 77 82 -6 5 -26 -9 -48 -34z"></path><path d="M205 208 l-50 -53 53 50 c48 46 57 55 49 55 -1 0 -25 -24 -52 -52z"></path><path d="M92 147 c-24 -26 -46 -87 -32 -87 5 0 27 19 49 42 31 32 38 45 30 55 -16 18 -22 17 -47 -10z"></path><path d="M155 90 l-39 -40 42 0 42 0 0 40 c0 22 -1 40 -3 40 -2 0 -21 -18 -42 -40z"></path></g></svg> 